<?xml version="1.0" encoding="utf-8"?>
<svg width="600px" height="600px" version="1.1" style="shape-rendering:geometricPrecision; text-rendering:geometricPrecision; image-rendering:optimizeQuality; fill-rule:evenodd; clip-rule:evenodd" viewBox="0 0 600 600" xmlns="http://www.w3.org/2000/svg">
  <defs>
    <style type="text/css">
   
    .fil0 {fill:#6CCC00}
    .fil1 {fill:#F7FAFB}
   
  </style>
  </defs>
  <g id="Layer_x0020_1" transform="matrix(2.265831, 0, 0, 2.265831, -295.307892, -1150.529907)" style="">
    <path class="fil0" d="M376.84 703.33l3.06 -5.92c4.68,-13.37 8.6,-20.81 10.98,-34.67 10.5,-61.08 -25.37,-123.31 -85.73,-143.45 -41.85,-13.96 -89.32,-5.47 -121.21,20.75 -6.09,5.01 -11.29,9.13 -15.9,14.85 -10.7,13.31 -16.49,19.49 -23.94,38.05 -33.59,83.69 26.02,173.72 113.99,177.33 19.05,0.79 37.03,-2.51 52.96,-8.86 16.94,-6.75 35.7,-19.44 46.32,-31.3 2.35,-2.62 4.92,-5.39 7.23,-8.4 2.29,-3 4.44,-5.77 6.55,-9.08 1.96,-3.1 3.72,-6.01 5.69,-9.3z"/>
    <path class="fil1" d="M247.52 645.88c-2.77,-2.08 -6.88,-6.73 -9.61,-9.46 -3.4,-3.4 -6.43,-6.43 -9.83,-9.83 -2.15,-2.14 -7.21,-7.9 -10.25,-8.94 -6.02,-2.06 -10.29,3.87 -12.59,6.19 -6.48,6.52 -13.16,12.73 -19.41,19.4 -7.67,8.18 1.87,14.36 10.34,22.83 6.59,6.59 12.81,12.81 19.4,19.4 3.32,3.31 6.26,6.26 9.58,9.58 13.07,13.06 8.52,10.87 27.92,10.91 7.61,0.02 9.36,-3.42 12.81,-6.87 10.24,-10.23 75.65,-74.66 77.52,-78.25 3.14,-6.04 -2.43,-10.38 -4.69,-12.64l-19.4 -19.41c-9,-9.05 -14.12,-0.39 -22.85,8.34l-39.06 39.05c-2.81,2.82 -7.01,7.55 -9.88,9.7z"/>
  </g>
</svg>