<?xml version="1.0" encoding="utf-8"?>
<svg id="Layer_1" data-name="Layer 1" viewBox="0 0 100 80" xmlns="http://www.w3.org/2000/svg">
	<defs>
		<style>
			.cls-1{fill:#e8f4fa;}.cls-17,.cls-2,.cls-7{fill:#fff;}.cls-3{fill:none;}.cls-10,.cls-11,.cls-12,.cls-13,.cls-14,.cls-15,.cls-16,.cls-17,.cls-3,.cls-7{stroke:#45413c;stroke-linejoin:round;}.cls-10,.cls-11,.cls-12,.cls-13,.cls-14,.cls-15,.cls-3,.cls-7{stroke-linecap:round;}.cls-15,.cls-16,.cls-4{fill:#00b8f0;}.cls-5{fill:#4acfff;}.cls-6{fill:#009fd9;}.cls-8{fill:#e0e0e0;}.cls-9{fill:#87898c;}.cls-10{fill:#daedf7;}.cls-11{fill:#ff6242;}.cls-12{fill:#fff48c;}.cls-13{fill:#6dd627;}.cls-14{fill:#ffe500;}
		</style>
	</defs>
	<g id="_Group_" data-name="&lt;Group&gt;" style="" transform="matrix(1.021959, 0, 0, 1.035514, -1.366266, -6.537402)">
		<path class="cls-1" d="M90,50A40,40,0,1,0,13.56,66.5H86.44A39.85,39.85,0,0,0,90,50Z" />
		<path class="cls-2" d="M13.56,66.5a40,40,0,0,0,72.88,0Z" />
		<line class="cls-3" x1="11" y1="66.5" x2="89" y2="66.5" />
		<line class="cls-3" x1="6.5" y1="66.5" x2="9" y2="66.5" />
		<line class="cls-3" x1="91" y1="66.5" x2="93.5" y2="66.5" />
	</g>
	<rect class="cls-4" x="22.292" y="30.078" width="49.361" height="35.725" rx="3.6" ry="3.6" style="" />
	<path class="cls-5" d="M 52.144 30.078 L 26.523 30.078 C 24.183 30.078 22.287 32.004 22.292 34.375 L 22.292 60.336 Z" style="" />
	<path class="cls-6" d="M 36.447 52.238 C 34.871 52.261 33.58 50.976 33.575 49.38 L 33.575 48.914 L 30.754 51.762 L 30.754 52.238 C 30.76 53.814 32.019 55.09 33.575 55.096 L 68.832 55.096 C 70.388 55.09 71.647 53.814 71.653 52.238 Z" style="" />
	<polygon class="cls-6" points="33.575 30.088 30.754 30.088 30.754 51.762 33.575 48.904 33.575 30.088" style="" />
	<rect class="cls-3" x="22.292" y="30.078" width="49.361" height="35.725" rx="3.6" ry="3.6" style="" />
	<path class="cls-7" d="M 67.422 65.803 C 69.755 65.803 71.647 63.89 71.653 61.527 L 71.653 60.097 L 22.292 60.097 L 22.292 61.527 C 22.292 63.892 24.188 65.809 26.523 65.803 Z" style="" />
	<polygon class="cls-8" points="51.204 71.53 42.742 71.53 43.447 65.803 50.498 65.803 51.204 71.53" style="" />
	<polygon class="cls-9" points="50.764 67.957 43.181 67.957 43.447 65.803 50.498 65.803 50.764 67.957" style="" />
	<polygon class="cls-3" points="51.204 71.53 42.742 71.53 43.447 65.803 50.498 65.803 51.204 71.53" style="" />
	<path class="cls-7" d="M 56.14 74.388 L 37.806 74.388 C 37.8 72.807 39.066 71.524 40.626 71.53 L 53.319 71.53 C 54.877 71.53 56.14 72.809 56.14 74.388 Z" style="" />
	<path class="cls-10" d="M 33.575 25.087 L 74.453 25.087 C 74.453 25.087 74.453 25.087 74.453 25.087 L 74.453 49.753 C 74.453 51.125 73.355 52.238 72 52.238 L 36.028 52.238 C 34.673 52.238 33.575 51.125 33.575 49.753 L 33.575 25.087 C 33.575 25.087 33.575 25.087 33.575 25.087 Z" style="" />
	<path class="cls-7" d="M 36.028 16.513 L 72.021 16.513 C 73.376 16.513 74.474 17.625 74.474 18.998 L 74.474 25.087 C 74.474 25.087 74.474 25.087 74.474 25.087 L 33.595 25.087 C 33.595 25.087 33.595 25.087 33.595 25.087 L 33.595 18.988 C 33.601 17.627 34.685 16.524 36.028 16.513 Z" style="" />
	<circle class="cls-11" cx="38.33" cy="26.4" r="1.38" style="" transform="matrix(1.021959, 0, 0, 1.035514, -1.366266, -6.537402)" />
	<circle class="cls-12" cx="43.85" cy="26.4" r="1.38" style="" transform="matrix(1.021959, 0, 0, 1.035514, -1.366266, -6.537402)" />
	<circle class="cls-13" cx="49.37" cy="26.4" r="1.38" style="" transform="matrix(1.021959, 0, 0, 1.035514, -1.366266, -6.537402)" />
	<rect class="cls-13" x="46.268" y="33.65" width="5.641" height="5.716" rx="1" ry="1" style="" />
	<rect class="cls-11" x="55.435" y="33.65" width="5.641" height="5.716" rx="1" ry="1" style="" />
	<rect class="cls-13" x="64.602" y="33.65" width="5.641" height="5.716" rx="1" ry="1" style="" />
	<rect class="cls-11" x="46.268" y="42.235" width="5.641" height="5.716" rx="1" ry="1" style="" />
	<rect class="cls-13" x="55.435" y="42.235" width="5.641" height="5.716" rx="1" ry="1" style="" />
	<rect class="cls-14" x="64.602" y="42.235" width="5.641" height="5.716" rx="1" ry="1" style="" />
	<rect class="cls-15" x="37.806" y="27.945" width="5.641" height="2.858" rx="1" ry="1" style="" />
	<rect class="cls-16" x="46.268" y="27.945" width="23.975" height="2.858" rx="1" ry="1" style="" />
	<line class="cls-3" x1="37.806" y1="33.65" x2="43.447" y2="33.65" style="" />
	<line class="cls-3" x1="37.806" y1="36.508" x2="43.447" y2="36.508" style="" />
	<line class="cls-3" x1="37.806" y1="39.377" x2="43.447" y2="39.377" style="" />
	<line class="cls-3" x1="37.806" y1="42.235" x2="43.447" y2="42.235" style="" />
	<line class="cls-3" x1="37.806" y1="45.083" x2="43.447" y2="45.083" style="" />
	<line class="cls-3" x1="37.806" y1="47.941" x2="41.331" y2="47.941" style="" />
	<path class="cls-17" d="M 83.641 63.587 C 83.436 64.343 83.027 64.374 82.731 63.649 L 78.102 52.393 C 77.805 51.668 78.102 51.358 78.868 51.627 L 89.967 56.318 C 90.682 56.618 90.651 57.032 89.905 57.239 L 86.349 58.223 C 85.532 58.5 84.889 59.147 84.611 59.973 Z" style="" />
	<circle class="cls-10" cx="47.3" cy="67.1" r="0.58" style="" transform="matrix(1.021959, 0, 0, 1.035514, -1.366266, -6.537402)" />
</svg>
