<?xml version="1.0" encoding="utf-8"?>
<svg width="3252px" height="450px" version="1.1" viewBox="0 0 3427.85 474.65" xmlns="http://www.w3.org/2000/svg">
  <defs>
    <style type="text/css">
			     .fil0 {fill:white}    
		</style>
  </defs>
  <g>
    <path class="fil0" d="M66.99 0c48.45,0 89.72,27.38 105.39,65.71l0.83 0c41.06,0 78.96,12.04 109.48,32.39 3.35,-0.24 6.74,-0.36 10.16,-0.36 33.95,0 64.75,12.02 87.34,31.54 17.85,-8.69 38.32,-13.64 60.1,-13.64 26.25,0 50.62,7.19 70.76,19.47 22.69,-20.15 54,-32.61 88.57,-32.61 56.86,0 104.87,33.7 120.27,79.9 31.74,-23.62 72.6,-37.84 117.19,-37.84 46.32,0 88.61,15.34 120.83,40.62 30.48,-52.24 91.77,-87.93 162.42,-87.93 51.22,0 97.52,18.76 130.72,48.97 21.61,-52.51 92.28,-91.03 176.14,-91.03 90.06,0 164.92,44.42 180.11,102.91 4.83,-0.27 9.7,-0.4 14.63,-0.4 63.53,0 119.48,22.1 152.27,55.65 3.76,-0.3 7.57,-0.46 11.43,-0.46 1.92,0 3.83,0.05 5.73,0.13 28.62,-43.46 92.6,-73.72 166.93,-73.72 15.1,0 29.77,1.26 43.81,3.62 21.51,-15.42 48.83,-24.65 78.58,-24.65 50.68,0 94.32,26.77 114.12,65.3 14.71,2.89 28.66,7 41.6,12.16 8.42,-0.81 17.04,-1.23 25.79,-1.23 16.37,0 32.23,1.47 47.33,4.22 26.23,-47.02 92.9,-80.45 171.01,-80.45 4.93,0 9.8,0.14 14.63,0.4 15.19,-58.49 90.05,-102.9 180.11,-102.9 83.86,0 154.53,38.51 176.14,91.03 33.2,-30.22 79.5,-48.98 130.72,-48.98 70.65,0 131.94,35.69 162.42,87.93 32.22,-25.28 74.51,-40.62 120.83,-40.62 44.59,0 85.45,14.22 117.19,37.84 7.78,-23.35 23.9,-43.5 45.28,-57.72l-2.04 389.4 -3425.81 0 2.03 -456.18c18.33,-11.63 40.75,-18.47 64.96,-18.47z" style="fill: rgb(222, 237, 249);"/>
  </g>
</svg>